PathFileType	4	(X/Y/Z)	10_2_77_p0_0-548.trc
DataRate	CameraRate	NumFrames	NumMarkers	Units	OrigDataRate	OrigDataStartFrame	OrigNumFrames
59.0	59.0	6	27	m	59.0	0	549
Frame#	Time	RHip			RKnee			RAnkle			RBigToe			RSmallToe			RHeel			LHip			LKnee			LAnkle			LBigToe			LSmallToe			LHeel			Neck			Head			Nose			RShoulder			RElbow			RWrist			RThumb			RIndex			RPinky			LShoulder			LElbow			LWrist			LThumb			LIndex			LPinky			
		X1	Y1	Z1	X2	Y2	Z2	X3	Y3	Z3	X4	Y4	Z4	X5	Y5	Z5	X6	Y6	Z6	X7	Y7	Z7	X8	Y8	Z8	X9	Y9	Z9	X10	Y10	Z10	X11	Y11	Z11	X12	Y12	Z12	X13	Y13	Z13	X14	Y14	Z14	X15	Y15	Z15	X16	Y16	Z16	X17	Y17	Z17	X18	Y18	Z18	X19	Y19	Z19	X20	Y20	Z20	X21	Y21	Z21	X22	Y22	Z22	X23	Y23	Z23	X24	Y24	Z24	X25	Y25	Z25	X26	Y26	Z26	X27	Y27	Z27	
0	0.0	0.3030369604202654	0.5594919616205581	0.9358289679626223	0.3018430687780116	0.6800020768140304	1.3843261252744028	0.2986522075846299	0.8116286283671382	1.804289561895193	0.27901161325087115	0.6060318936423768	1.8451925869228503	0.32876611040543574	0.6583072966189626	1.8526851909868542	0.26873718555329673	0.8879271286945112	1.8638663861820437	0.07737241360025524	0.5396128312272959	0.937704292352575	0.08813204412917446	0.652067343449139	1.3702010906566466	0.08408397898438308	0.7767813576874817	1.7961282341396139	0.11022904631556642	0.6310403127922912	1.8648324786758201	0.05691993136724863	0.6416088961095919	1.8465036732785003	0.09287009129154485	0.8791180727710054	1.8525152060475563	0.18621296586858985	0.41373481255845923	0.33258288235824424	0.21267869151879895	0.289382268721233	0.103825282409747	0.21477177144867682	0.26551356804205717	0.23499014966431514	0.36302662264825386	0.4449644649299725	0.43209138587850016	0.40452708833206197	0.4492362885547789	0.7107826801712492	0.2572044528656835	0.2903512316675004	0.866384576844747	0.1598469029151634	0.2981564183177731	0.9535519060366712	0.16348601908313615	0.3275980232176169	0.9759531136420425	0.17729121253302643	0.33078385251774933	0.9908010279149281	0.04155119859207724	0.41877130210596875	0.42409773758884606	0.02748517704095031	0.3810634135629981	0.7110620250761783	0.17611760354971268	0.2837410403957356	0.8823716517917205	0.2367576781313881	0.2741922019198502	0.9747958890370467	0.22641254543246336	0.30961852320505373	1.0065053129818087	0.2002822727869423	0.34884663085278766	0.9938431778579178
1	0.01694915254237288	0.30325941462845474	0.558690664866159	0.9356542096892555	0.30109622552583404	0.6811438456148488	1.3889969974341554	0.29920793518065786	0.810123531255023	1.8079866543774452	0.27524808509660914	0.6181280431860072	1.8491638261274108	0.3315859989026878	0.6738630935608163	1.8571328337011606	0.2688657073909121	0.8885298233311378	1.8627981595383765	0.07498893567208535	0.5275009551630828	0.9336612899835314	0.08812525662562697	0.6518178088699986	1.370638058500193	0.08192039095394349	0.7614959083828708	1.7913152606095888	0.11244112387854804	0.6458813869909629	1.870232299670917	0.0571126003414709	0.6420690303596112	1.8467830411399015	0.08996228299976436	0.862765575850145	1.8471424180916665	0.18631122591876337	0.4135895286591873	0.3324996349510662	0.21274182498014546	0.2892893721347659	0.1038816288265875	0.2146781052521581	0.2649003464710867	0.23183294840597932	0.3629872034167913	0.44510670804689284	0.43192037829549484	0.40061868823034685	0.4630671944830563	0.7110898599139668	0.26126882139807717	0.29178604911433953	0.8662530828882206	0.17187430040417342	0.32813846557400567	0.9684234928343122	0.1764109328644392	0.3304661903478422	0.9828987049739251	0.17168725618924816	0.34101867380017065	0.9880846935303201	0.04189976491490234	0.4180452886994786	0.42102056660639003	0.02747744606331567	0.38061864213744784	0.7108492132998188	0.17139690513895417	0.295461233986009	0.8836050366211333	0.231304074214617	0.3096059600860994	0.9726004977425399	0.22182594230446664	0.32116160241112524	1.0078455760414387	0.19485166481751293	0.33462244745865705	0.9889734255963807
2	0.03389830508474576	0.3032568179362133	0.5589267501385619	0.9357329506622277	0.30188254315463553	0.6797769227872167	1.3844740790342152	0.29868069916295464	0.8116959568630395	1.804222357928832	0.27483548467418184	0.6195472532762868	1.8460663940824618	0.3316117224989344	0.6738974245275962	1.8571042325545883	0.2683714423925632	0.8896704957228438	1.859768765120551	0.07530584431560496	0.526939841197927	0.9372418677921217	0.08860136687883682	0.6508081818156057	1.3741170572014378	0.08190232735986663	0.7614446575100341	1.7913188297826346	0.11243268199228584	0.6458973207708146	1.8701924983293714	0.057054522606252316	0.6417352300255524	1.8465383666907158	0.09293530162940895	0.840878297331241	1.8394684747259358	0.18630096241786243	0.4138670370161001	0.3325019116192127	0.21275246787619637	0.2893722962768452	0.10383351060335609	0.21466492970393422	0.2648811087387936	0.23180545849387557	0.35870424232171433	0.4583549555932857	0.43118108017765794	0.40060838506175006	0.4631101024018175	0.7110163279254899	0.2612642646980639	0.2917309034340872	0.866281038720142	0.1747981929227126	0.32874923163813735	0.9686126718872458	0.17641399142253303	0.3305831034680215	0.9829907770600991	0.1760864498071682	0.34463019761834957	0.991921363956282	0.04192592222750931	0.41799578243051577	0.42101649425940985	0.02745857762338579	0.38068721173184117	0.7108057314527441	0.17139888651454382	0.29560193058790835	0.8835908335253825	0.23564861187789807	0.29737966099621815	0.9709149746983902	0.2283560403714978	0.32107838133952143	1.0072322211621716	0.19752739903429578	0.34661453479723825	0.9902438818965809
3	0.05084745762711865	0.3032338391676047	0.5590374584327875	0.9357977800318276	0.3018506778170813	0.6798048341098063	1.3844654006061243	0.29919904054973384	0.8102240441571998	1.8078551865783703	0.27536343675196895	0.6179865303899418	1.849485717221073	0.3317395036482009	0.6736435109389839	1.8573361778717035	0.26839953540756817	0.8897008017322475	1.859761216330335	0.07528256125707337	0.526910285635903	0.9373015741705519	0.0882354222180428	0.6518358438750974	1.3705646600240124	0.08408296790686481	0.7763639928427088	1.7961279833265464	0.11244977973394397	0.6459257969327626	1.870094474244317	0.05714505677489986	0.6417594975382637	1.8464915364539	0.08907667587980553	0.8748478309375061	1.8511729025639025	0.18627707618171954	0.41382351636899006	0.3324743482780045	0.2127645287746504	0.28933585911408954	0.10384887999158277	0.2191128841786418	0.25371987618270836	0.23334777508776697	0.3629802773606886	0.4450880430556309	0.43198690341389334	0.40059147839123105	0.4630252207486194	0.7110850864147916	0.2568058162427234	0.29127228881505857	0.8697286165296805	0.17546122351268398	0.3287857347372468	0.9710068852334168	0.1766838688087356	0.3310093830550399	0.9830141635205056	0.17594967842307993	0.3424109347770182	0.9881966338951259	0.0418860460425339	0.4179823648600066	0.4210257806295076	0.027540118781143645	0.38065148328641935	0.7108449055801995	0.17137810473769985	0.29572906678588323	0.8835140046650257	0.23725052076602463	0.30829981437629633	0.9754406399048153	0.22862759045768904	0.32374956627102247	1.0111984091880182	0.2010011528855773	0.34803307717101095	0.9902433324058982
4	0.06779661016949153	0.3032614474856059	0.5588204653977396	0.9357485222241442	0.3018522939014704	0.6799142681770844	1.3844467247793184	0.2986161726798684	0.811962175040363	1.804297074445856	0.27477787614752897	0.6196479425137847	1.8460874027090617	0.33153002377645446	0.6740624967809966	1.8571114401595576	0.2683352496916455	0.8897134318554976	1.8599452892251247	0.07498943566087862	0.5275671786187651	0.9336724079316405	0.0882117198717115	0.6520307596886654	1.3705882774158202	0.08192808768913891	0.7615365435319494	1.7913584313784316	0.11250418099645743	0.6459311057132406	1.8701047094153942	0.05719237883000383	0.6420474370594395	1.8467510122561273	0.08988059023161453	0.8628212496044824	1.8472092024181226	0.18633425844643509	0.413804170673365	0.33245395261593397	0.2127575982356826	0.2894911350141971	0.10384214644223039	0.2191058979889765	0.25434853682852676	0.23640083460087086	0.3629741106791527	0.44500007167283107	0.4320397500237012	0.40060994907882547	0.46309541941213306	0.7111408624894484	0.26087159831838147	0.29264792882314433	0.8696729744810874	0.17301084964014402	0.3284006419956627	0.9710811947190751	0.1766761373456653	0.33115916088625535	0.983019626205947	0.17163329041692624	0.3407388005369785	0.988080884013316	0.041887020075567785	0.4179982004156519	0.42095678153119054	0.02755678691313896	0.38059513766725356	0.7108939647294699	0.17139971050568398	0.29583728492569045	0.8835524009349828	0.23670615407669146	0.30865276099701466	0.9752540357398435	0.2297118148883515	0.3217378561778496	1.0120179216405647	0.20084919287792352	0.3478155367558331	0.990060501333957
5	0.0847457627118644	0.3031563339968817	0.5588619697454262	0.9357753436519275	0.3018672726403827	0.6797324157017371	1.384407467498536	0.29863031764418174	0.811835011892406	1.8041357274523133	0.27989177982512004	0.6048580639595332	1.8401439929132994	0.32816475253898725	0.6590817993767495	1.8519835691398967	0.2683831590984896	0.889827108616448	1.8597471567302761	0.07529846376376291	0.5268139286006993	0.9373498097562488	0.08830314302992574	0.6519429271346884	1.3704751415576124	0.08408931513830477	0.7765096795392121	1.796222935367909	0.11246805805868527	0.6457936169821048	1.8700838978954408	0.057143065467468904	0.6422146751907191	1.8468327551208292	0.08983016351798784	0.8631887063682943	1.8472933384744725	0.1863181278170994	0.41386688716821546	0.3324504352281362	0.21273461407621608	0.28944729868373625	0.10381816904634975	0.2146364763063538	0.2649039986926048	0.23176565839520558	0.3629865449459546	0.44502987390032916	0.4320086294261566	0.4029676058029303	0.4727321048512253	0.7076537196885787	0.2608513337782911	0.2924953511454624	0.8696857603164632	0.17224940140901215	0.3279579829103915	0.9687565878658535	0.1764565793096523	0.3306752671305761	0.9829795814993769	0.17249648991879407	0.34195111663927813	0.9921201559146403	0.041677636335483555	0.41866037762838226	0.42425938647163064	0.027552868662945058	0.3804891251878861	0.71089664083569	0.17137222967918783	0.29560414993171036	0.8834874227818552	0.23215373628115132	0.3074415225263007	0.974972016056678	0.22936636821285772	0.3188493401871956	1.008198327283195	0.19776842997088231	0.33712545307999997	0.9929628885299613
